<?xml version="1.0" encoding="UTF-8"?>
<!-- Generator: Adobe Illustrator 24.0.1, SVG Export Plug-In . SVG Version: 6.00 Build 0)  -->
<svg version="1.1" id="Ebene_1" xmlns="http://www.w3.org/2000/svg" xmlns:xlink="http://www.w3.org/1999/xlink" x="0px" y="0px" viewBox="0 0 120 120" style="enable-background:new 0 0 120 120;" xml:space="preserve" data-websigner.1.0.7="true">
<style type="text/css">
	.st1{fill:none;stroke:#3c4043;stroke-width:3.3;stroke-linecap:round;stroke-linejoin:round;stroke-miterlimit:10;}
	.st2{fill:none;stroke:#5ab031;stroke-width:3.3;stroke-linecap:round;stroke-linejoin:round;stroke-miterlimit:10;}
</style>
<path class="st1" d="M59.7,109.7h0.7c24.7-8.9,36.3-28,38.8-45.8c2.5-17.9,2.4-39,2.4-39c-5.9-0.6-16.4-3.3-22.4-5.9  C66.9,13.6,60,8.2,60,8.2h0c0,0-7,5.5-19.1,10.8c-6,2.6-16.5,5.3-22.4,5.9c0,0-0.2,21.1,2.4,39S34.9,100.8,59.7,109.7h0.7H59.7z"/>
<polyline class="st2" points="65.8,82.9 37.6,82.9 37.6,29.6 80.5,29.6 80.5,70.6 "/>
<line class="st2" x1="44.2" y1="43.6" x2="58.7" y2="43.6"/>
<line class="st2" x1="44.2" y1="67.8" x2="52" y2="67.8"/>
<line class="st2" x1="67.3" y1="35.4" x2="74.2" y2="35.4"/>
<line class="st2" x1="44.2" y1="49.9" x2="70" y2="49.9"/>
<line class="st2" x1="44.2" y1="54.8" x2="70" y2="54.8"/>
<line class="st2" x1="44.2" y1="59.7" x2="70" y2="59.7"/>
<circle class="st1" cx="75.3" cy="79.2" r="9.6"/>
<polyline class="st2" points="71.9,80.2 74.7,82 78.4,76.5 "/>
</svg>
