<?xml version="1.0" encoding="UTF-8"?>
<!-- Generator: Adobe Illustrator 24.0.1, SVG Export Plug-In . SVG Version: 6.00 Build 0)  -->
<svg version="1.1" id="Ebene_1" xmlns="http://www.w3.org/2000/svg" xmlns:xlink="http://www.w3.org/1999/xlink" x="0px" y="0px" viewBox="0 0 120 120" style="enable-background:new 0 0 120 120;" xml:space="preserve" data-websigner.1.0.7="true">
<style type="text/css">
	.st0{fill:none;}
	.st1{clip-path:url(#SVGID_2_);}
	.st2{clip-path:url(#SVGID_4_);fill:#3FA965;}
	.st3{clip-path:url(#SVGID_4_);fill:#FFFFFF;}
	.st4{clip-path:url(#SVGID_4_);fill:#DA3C47;}
	
		.st5{clip-path:url(#SVGID_2_);fill:none;stroke:#3c4043;stroke-width:3.3;stroke-linecap:round;stroke-linejoin:round;stroke-miterlimit:10;}
	.st6{fill:none;stroke:#3c4043;stroke-width:3.3;stroke-linecap:round;stroke-linejoin:round;stroke-miterlimit:10;}
	.st7{fill:none;stroke:#3c4043;stroke-width:3.3;stroke-linecap:round;stroke-linejoin:round;stroke-miterlimit:10;}
</style>
<rect class="st0" width="120" height="120"/>
<g>
	<defs>
		<path id="SVGID_1_" d="M3.7,2.6V116H117V2.6H3.7z M88.3,109.3c-8.8,0-15.9-7.1-15.9-15.9s7.1-15.9,15.9-15.9    c8.8,0,15.9,7.1,15.9,15.9S97.1,109.3,88.3,109.3z"/>
	</defs>
	<clipPath id="SVGID_2_">
		<use xlink:href="#SVGID_1_" style="overflow:visible;"/>
	</clipPath>
	<g class="st1">
		<defs>
			<path id="SVGID_3_" d="M66.9,105.7c-2.1,1-4.3,1.9-6.6,2.8h-0.7h0.7h-0.7c-24-8.7-35.1-27.1-37.6-44.4s-2.3-37.8-2.3-37.8     c5.7-0.6,15.8-3.2,21.7-5.7C53.2,15.4,60,10.1,60,10.1h0c0,0,6.7,5.3,18.5,10.5c5.8,2.5,16,5.1,21.7,5.7c0,0,0.2,20.4-2.3,37.8     c-1.3,9-4.9,18.2-11.4,26.2C86.5,90.3,79.3,100.1,66.9,105.7z"/>
		</defs>
		<clipPath id="SVGID_4_">
			<use xlink:href="#SVGID_3_" style="overflow:visible;"/>
		</clipPath>
		<rect x="20.6" y="5.1" class="st2" width="26.2" height="109.7"/>
		<rect x="46.8" y="5.1" class="st3" width="26.2" height="109.7"/>
		<rect x="73.1" y="5.1" class="st4" width="26.2" height="109.7"/>
	</g>
	<path class="st5" d="M66.9,105.7c-2.1,1-4.3,1.9-6.6,2.8h-0.7h0.7h-0.7c-24-8.7-35.1-27.1-37.6-44.4s-2.3-37.8-2.3-37.8   c5.7-0.6,15.8-3.2,21.7-5.7C53.2,15.4,60,10.1,60,10.1h0c0,0,6.7,5.3,18.5,10.5c5.8,2.5,16,5.1,21.7,5.7c0,0,0.2,20.4-2.3,37.8   c-1.3,9-4.9,18.2-11.4,26.2C86.5,90.3,79.3,100.1,66.9,105.7z"/>
</g>
<circle class="st6" cx="88.3" cy="93.4" r="15.9"/>
<polyline class="st7" points="80.9,95.2 86.7,98.8 94.4,87.5 "/>
</svg>