<?xml version="1.0" encoding="UTF-8"?>
<svg id="Layer_1" xmlns="http://www.w3.org/2000/svg" xmlns:xlink="http://www.w3.org/1999/xlink" version="1.1" viewBox="0 0 320 320">
  <!-- Generator: Adobe Illustrator 30.0.0, SVG Export Plug-In . SVG Version: 2.1.1 Build 123)  -->
  <defs>
    <style>
      .st0, .st1 {
        fill: none;
      }

      .st2 {
        clip-path: url(#clippath-1);
      }

      .st3 {
        clip-path: url(#clippath-3);
      }

      .st4 {
        clip-path: url(#clippath-4);
      }

      .st5 {
        clip-path: url(#clippath-2);
      }

      .st6 {
        clip-path: url(#clippath-5);
      }

      .st7 {
        fill: #d0b171;
      }

      .st8 {
        fill: #fff;
      }

      .st9 {
        fill: #6c704b;
      }

      .st10 {
        clip-path: url(#clippath);
      }

      .st1 {
        stroke: #fff;
      }
    </style>
    <clipPath id="clippath">
      <rect class="st0" x="159.6" y="97.1" width="76.3" height="72"/>
    </clipPath>
    <clipPath id="clippath-1">
      <rect class="st0" x="62.5" y="82.4" width="97.8" height="86.6"/>
    </clipPath>
    <clipPath id="clippath-2">
      <rect class="st0" x="159.6" y="82.4" width="97.8" height="86.6"/>
    </clipPath>
    <clipPath id="clippath-3">
      <rect class="st0" x="84" y="97.1" width="76.3" height="72"/>
    </clipPath>
    <clipPath id="clippath-4">
      <rect class="st0" x="110.1" y="119.1" width="99.7" height="50"/>
    </clipPath>
    <clipPath id="clippath-5">
      <rect class="st0" x="133.5" y="142.5" width="52.9" height="26.6"/>
    </clipPath>
  </defs>
  <rect class="st9" width="320" height="320"/>
  <rect class="st1" x="22.2" y="22.2" width="275.6" height="275.6" rx="137.8" ry="137.8"/>
  <g>
    <g>
      <g class="st10">
        <path class="st8" d="M160,101.5l67.4,67.4h8.1l-71.5-71.5-4.1,4.1Z"/>
      </g>
      <g class="st2">
        <path class="st8" d="M149.1,90.6l6.8,6.8,4.1-4.1-10.9-10.9-86.5,86.5h8.1l78.3-78.3Z"/>
      </g>
      <g class="st5">
        <path class="st8" d="M170.9,90.6l78.3,78.3h8.1l-86.5-86.5-10.9,10.9,4.1,4.1,6.8-6.8Z"/>
      </g>
      <g class="st3">
        <path class="st8" d="M155.9,97.4l-71.5,71.5h8.1l67.4-67.4-4.1-4.1Z"/>
      </g>
      <path class="st8" d="M164.1,97.4l-4.1,4.1-4.1-4.1,4.1-4.1,4.1,4.1Z"/>
      <g class="st4">
        <path class="st8" d="M110.5,168.9h8.1l41.3-41.3,41.3,41.3h8.1l-49.5-49.5-49.5,49.5Z"/>
      </g>
      <g class="st6">
        <path class="st8" d="M134,168.9h8.1l17.8-17.8,17.8,17.8h8.1l-26-26-26,26Z"/>
      </g>
    </g>
    <g>
      <g>
        <path class="st7" d="M79.5,237.4h-2.1l-1-6.3-2.9,6.3h-.5l-2.9-6.3-1,6.3h-2.1l1.5-9.6h2.1l2.6,5.9,2.6-5.9h2.1l1.5,9.6Z"/>
        <path class="st7" d="M93.8,235.4h3.8v1.9h-5.9v-9.6h5.8v1.9h-3.7v1.9h3.3v1.9h-3.3v2Z"/>
        <path class="st7" d="M121.8,237.4h-2.1l-1-6.3-2.9,6.3h-.5l-2.9-6.3-1,6.3h-2.1l1.5-9.6h2.1l2.6,5.9,2.6-5.9h2.1l1.5,9.6Z"/>
        <path class="st7" d="M139.8,232.3c.4.2.7.5,1,.9.2.4.4.9.4,1.4s-.1,1-.4,1.4c-.3.4-.6.8-1.1,1-.5.2-1,.4-1.5.4h-4.1v-9.6h4c.5,0,1,.1,1.5.3.4.2.8.5,1,.9.2.4.4.8.4,1.3s0,.8-.3,1.2c-.2.4-.5.7-.8.9ZM138.8,230.5c0-.3,0-.5-.3-.7s-.5-.3-.8-.3h-1.7v2.1h1.7c.3,0,.6,0,.8-.3s.3-.4.3-.7ZM137.9,235.4c.3,0,.6,0,.8-.3.2-.2.3-.5.3-.8s-.1-.6-.3-.8c-.2-.2-.5-.3-.8-.3h-1.8v2.2h1.8Z"/>
        <path class="st7" d="M155.5,235.4h3.8v1.9h-5.9v-9.6h5.8v1.9h-3.7v1.9h3.3v1.9h-3.3v2Z"/>
        <path class="st7" d="M177,237.4l-1.9-3.3h-1.3v3.3h-2.1v-9.6h3.9c.6,0,1.2.1,1.7.4.5.3.9.6,1.2,1.1.3.5.4,1,.4,1.6s-.2,1.2-.5,1.7c-.3.5-.7.9-1.3,1.1l2.1,3.6h-2.3ZM173.8,229.7v2.5h1.7c.4,0,.8-.1,1-.3.2-.2.4-.5.4-.9s-.1-.7-.4-.9c-.2-.2-.6-.4-1-.4h-1.7Z"/>
        <path class="st7" d="M194.5,237.6c-.7,0-1.4-.1-1.9-.4-.6-.3-1-.6-1.3-1.1-.3-.5-.5-1.1-.5-1.8h2.1c0,.5.2.8.5,1,.3.2.7.3,1.1.3s.5,0,.7-.1c.2,0,.4-.2.6-.4.2-.2.2-.4.2-.6s0-.4-.3-.6c-.2-.1-.4-.3-.7-.3-.3,0-.6-.2-1-.3-.4,0-.7-.2-1.1-.3-.4-.1-.7-.3-1-.5-.3-.2-.6-.5-.8-.8-.2-.3-.3-.8-.3-1.3,0-.9.3-1.6.9-2.1.6-.5,1.5-.8,2.5-.8s2,.3,2.6.8c.6.6.9,1.3.9,2.3h-2.1c0-.4-.1-.7-.4-.9-.3-.2-.6-.3-1-.3s-.6,0-.9.2c-.3.1-.4.4-.4.7s0,.4.2.5c.2.1.4.2.7.3.3,0,.6.2.9.2.4,0,.7.2,1.1.3.4.1.7.3,1.1.5.3.2.6.5.8.8.2.4.3.8.3,1.3s-.2,1.3-.5,1.7c-.3.5-.8.8-1.3,1-.5.2-1.2.3-1.8.3Z"/>
        <path class="st7" d="M216.2,227.7h2.1v9.6h-2.1v-4h-3.6v4h-2.1v-9.6h2.1v3.7h3.6v-3.7Z"/>
        <path class="st7" d="M231,237.4v-9.6h2.1v9.6h-2.1Z"/>
        <path class="st7" d="M249.6,227.7c.6,0,1.2.1,1.7.4.5.3.9.7,1.2,1.2.3.5.5,1.1.5,1.7s-.2,1.2-.5,1.7c-.3.5-.7.9-1.2,1.2-.5.3-1.1.4-1.7.4h-1.6v3h-2.1v-9.6h3.7ZM249.5,232.4c.4,0,.7-.1,1-.4.2-.3.4-.6.4-1s-.1-.7-.4-1c-.3-.3-.6-.4-1-.4h-1.5v2.8h1.5Z"/>
      </g>
      <g>
        <path class="st8" d="M83.3,199.5c1.2.6,2.1,1.5,2.7,2.6s1,2.4,1,3.8-.4,2.7-1.1,3.9c-.7,1.2-1.8,2.1-3,2.8-1.3.7-2.7,1-4.2,1h-11.3v-26.5h11c1.5,0,2.9.3,4.1.9,1.2.6,2.1,1.4,2.8,2.4.7,1,1,2.2,1,3.5s-.3,2.2-.8,3.2c-.5,1-1.3,1.8-2.2,2.5ZM80.7,194.7c0-.8-.3-1.5-.8-2-.5-.5-1.2-.8-2.1-.8h-4.8v5.6h4.8c.9,0,1.6-.3,2.1-.8s.8-1.2.8-2ZM78.1,208.2c1,0,1.7-.3,2.3-.8.6-.6.8-1.3.8-2.2s-.3-1.6-.8-2.1c-.6-.6-1.3-.8-2.3-.8h-5.1v5.9h5.1Z"/>
        <path class="st8" d="M127.7,208.1h10.6v5.3h-16.3v-26.5h15.9v5.3h-10.1v5.2h9.1v5.2h-9.1v5.4Z"/>
        <path class="st8" d="M187.9,213.4l-5.1-9h-3.7v9h-5.7v-26.5h10.7c1.8,0,3.3.4,4.7,1.1,1.4.8,2.5,1.8,3.3,3.1.8,1.3,1.2,2.8,1.2,4.5s-.4,3.2-1.3,4.6c-.9,1.3-2,2.4-3.5,3.1l5.9,10h-6.4ZM179.1,192.3v6.8h4.6c1.2,0,2.1-.3,2.8-1,.7-.6,1-1.5,1-2.4s-.3-1.8-1-2.5c-.7-.6-1.6-1-2.8-1h-4.6Z"/>
        <path class="st8" d="M240.2,199.6h14.1c0,2.1-.4,4-1,5.8-.7,1.7-1.6,3.3-2.8,4.6-1.2,1.3-2.6,2.3-4.3,3-1.6.7-3.5,1.1-5.5,1.1s-3.7-.3-5.4-1c-1.7-.7-3.1-1.6-4.4-2.9-1.2-1.2-2.2-2.7-2.9-4.4-.7-1.7-1-3.5-1-5.5s.3-3.8,1-5.5,1.6-3.1,2.8-4.4,2.7-2.2,4.3-2.9c1.7-.7,3.5-1,5.4-1s4.2.4,6.1,1.3c1.9.9,3.4,2,4.7,3.6,1.3,1.5,2.1,3.3,2.5,5.3h-5.9c-.6-1.4-1.5-2.6-2.8-3.4-1.3-.8-2.8-1.2-4.5-1.2s-2.9.4-4.1,1.1c-1.2.7-2.1,1.7-2.8,2.9-.7,1.2-1,2.7-1,4.4s.3,3.1,1,4.3c.7,1.2,1.6,2.2,2.8,2.9,1.2.7,2.6,1.1,4.2,1.1s3.2-.4,4.6-1.2c1.4-.8,2.3-1.9,2.8-3.3h-7.9v-4.4Z"/>
      </g>
    </g>
  </g>
</svg>